<svg width="140" height="90" viewBox="0 0 140 90" fill="none" xmlns="http://www.w3.org/2000/svg">
<g clip-path="url(#clip0_1_2)">
<path d="M17.493 59.7668C12.5494 59.133 8.2395 63.5698 9.1902 68.4501C9.82401 71.8726 12.7395 74.2811 16.9226 74.2811C19.0141 74.2811 20.7888 73.7106 22.0564 72.5698C23.3874 71.3656 21.6127 69.4008 20.2184 70.4782C19.331 71.1754 18.2536 71.4923 16.986 71.4923C14.5141 71.4923 12.8029 70.1613 12.4226 68.1332C12.4226 68.1332 12.4226 68.0698 12.486 68.0698L22.0564 68.0064C22.9437 68.0064 23.6409 67.3092 23.5775 66.4219C23.5775 66.1684 23.5775 65.9149 23.5775 65.7881C23.0705 62.4921 20.7254 60.2104 17.493 59.7668ZM20.4085 65.8515H12.4226C12.4226 65.8515 12.3592 65.8515 12.3592 65.7881C12.6761 63.7599 14.2606 62.3654 16.4156 62.3654C18.5705 62.3654 20.155 63.7599 20.4085 65.8515C20.4085 65.7881 20.4085 65.8515 20.4085 65.8515Z" fill="#4565AC"/>
<path d="M48.9937 59.7668C44.0501 59.133 39.7402 63.5698 40.6909 68.4501C41.3247 71.8726 44.2402 74.2811 48.4233 74.2811C50.5148 74.2811 52.2895 73.7106 53.5571 72.5698C54.8881 71.3656 53.1134 69.4008 51.7191 70.4782C50.8317 71.1754 49.7543 71.4923 48.4867 71.4923C46.0148 71.4923 44.3036 70.1613 43.9233 68.1332C43.9233 68.1332 43.9233 68.0698 43.9867 68.0698L53.5571 68.0064C54.4444 68.0064 55.1416 67.3092 55.0782 66.4219C55.0782 66.1684 55.0782 65.9149 55.0782 65.7881C54.5712 62.4921 52.2261 60.2104 48.9937 59.7668ZM51.8458 65.8515H43.9233C43.9233 65.8515 43.8599 65.8515 43.8599 65.7881C44.1768 63.7599 45.7613 62.3654 47.9163 62.3654C50.0712 62.3654 51.6557 63.7599 51.8458 65.8515C51.9092 65.7881 51.9092 65.8515 51.8458 65.8515Z" fill="#4565AC"/>
<path d="M33.1486 62.5558C34.2261 62.5558 35.1768 62.8727 36.0007 63.6332C36.5078 64.0768 37.205 64.2036 37.7754 63.8867L37.8388 63.8233C38.6627 63.3164 38.7895 62.1755 38.0923 61.4784C36.8881 60.3375 35.1768 59.7037 33.1486 59.7037C28.6486 59.7037 25.4796 62.6826 25.4796 66.9923C25.4796 71.2388 28.6486 74.2811 33.1486 74.2811C35.1768 74.2811 36.8881 73.6473 38.0923 72.5064C38.7895 71.8092 38.6627 70.6684 37.8388 70.1613L37.7754 70.098C37.205 69.7811 36.4444 69.9078 36.0007 70.3515C35.2402 71.112 34.2261 71.4289 33.1486 71.4289C30.6768 71.4289 28.8388 69.7811 28.8388 66.9923C28.8388 64.2036 30.7402 62.5558 33.1486 62.5558Z" fill="#4565AC"/>
<path d="M59.4507 55.0133C58.4366 55.0133 57.6761 55.7739 57.6761 56.7246C57.6761 57.6753 58.4366 58.4359 59.4507 58.4359C60.5282 58.4359 61.2254 57.6753 61.2254 56.6612C61.2887 55.7105 60.5282 55.0133 59.4507 55.0133Z" fill="#4565AC"/>
<path d="M59.5782 59.8931H59.3247C58.5007 59.8931 57.8036 60.5903 57.8036 61.4142V72.5692C57.8036 73.3931 58.5007 74.0903 59.3247 74.0903H59.5782C60.4021 74.0903 61.0993 73.3931 61.0993 72.5692V61.4142C61.0993 60.5903 60.4655 59.8931 59.5782 59.8931Z" fill="#4565AC"/>
<path d="M119.662 55.0133C118.648 55.0133 117.887 55.7739 117.887 56.7246C117.887 57.6753 118.648 58.4359 119.662 58.4359C120.739 58.4359 121.437 57.6753 121.437 56.6612C121.437 55.7105 120.676 55.0133 119.662 55.0133Z" fill="#4565AC"/>
<path d="M119.727 59.8931H119.473C118.649 59.8931 117.952 60.5903 117.952 61.4142V72.5692C117.952 73.3931 118.649 74.0903 119.473 74.0903H119.727C120.551 74.0903 121.248 73.3931 121.248 72.5692V61.4142C121.311 60.5903 120.614 59.8931 119.727 59.8931Z" fill="#4565AC"/>
<path d="M71.8098 71.4283C71.5563 71.4917 71.5563 71.5551 71.2394 71.5551C69.9718 71.5551 69.2746 70.7945 69.2746 69.4001V62.6185H71.176C71.8732 62.6185 72.507 62.048 72.507 61.2875C72.507 60.5269 71.9366 59.9565 71.176 59.9565H69.2746V58.3086C69.2746 57.4213 68.5775 56.7241 67.6901 56.7241H67.5634C66.676 56.7241 65.9789 57.4213 65.9789 58.3086V59.9565H64.9648C64.2042 59.9565 63.6338 60.5269 63.6338 61.2875C63.6338 62.048 64.2042 62.6185 64.9648 62.6185H65.9789V69.4635C65.9789 72.6325 67.7535 74.2804 70.8591 74.2804C71.5563 74.2804 71.9366 74.1537 72.5704 73.9635C73.2676 73.71 73.5845 72.9494 73.331 72.2523C73.0774 71.6185 72.4436 71.3016 71.8098 71.4283Z" fill="#4565AC"/>
<path d="M98.5563 58.6894H99.4436C99.6338 58.6894 99.8239 58.626 99.9507 58.4992L102.866 56.1542C103.5 55.6471 103.12 54.6964 102.359 54.6964H100.838C100.585 54.6964 100.394 54.7598 100.268 54.9499L97.9859 57.295C97.4789 57.8021 97.8591 58.6894 98.5563 58.6894Z" fill="#4565AC"/>
<path d="M114.211 59.8301C107.683 60.5907 107.683 66.7388 107.683 66.7388V72.6332C107.683 73.4571 108.38 74.1543 109.204 74.1543H109.458C110.282 74.1543 110.979 73.4571 110.979 72.6332V67.1825C110.979 64.5839 112.31 63.0625 114.401 62.809H114.465C115.225 62.7456 115.859 62.1117 115.859 61.2878C115.859 60.4005 115.099 59.7033 114.211 59.8301Z" fill="#4565AC"/>
<path d="M7.41599 59.8301C0.824432 60.5273 0.824432 66.6754 0.824432 66.6754V72.5698C0.824432 73.3937 1.52162 74.0909 2.34556 74.0909H2.59908C3.42302 74.0909 4.12021 73.3937 4.12021 72.5698V67.1825C4.12021 64.5839 5.45119 63.0625 7.54275 62.809H7.60613C8.3667 62.7456 9.0005 62.1117 9.0005 61.2878C9.06388 60.4005 8.30332 59.7033 7.41599 59.8301Z" fill="#4565AC"/>
<path d="M131.008 59.7037C126.634 59.7037 123.465 62.6826 123.465 66.9923C123.465 71.2388 126.634 74.2811 131.008 74.2811C135.444 74.2811 138.613 71.2388 138.613 66.9923C138.613 62.746 135.444 59.7037 131.008 59.7037ZM131.008 71.4289C128.599 71.4289 126.825 69.7177 126.825 66.9923C126.825 64.267 128.663 62.5558 131.008 62.5558C133.416 62.5558 135.254 64.267 135.254 66.9923C135.254 69.7177 133.416 71.4289 131.008 71.4289Z" fill="#4565AC"/>
<path d="M97.733 59.7037C93.3598 59.7037 90.1908 62.6826 90.1908 66.9923C90.1908 71.2388 93.3598 74.2811 97.733 74.2811C99.3809 74.2811 100.902 73.8374 102.106 73.0768C102.36 73.6473 102.867 74.0275 103.564 74.0275H103.818C104.641 74.0275 105.339 73.3304 105.339 72.5064V67.6895C105.339 67.6895 105.339 67.6895 105.339 67.6261C105.339 67.436 105.339 67.1825 105.339 66.9923C105.339 62.746 102.17 59.7037 97.733 59.7037ZM97.733 71.4289C95.3246 71.4289 93.5499 69.7177 93.5499 66.9923C93.5499 64.267 95.388 62.5558 97.733 62.5558C100.141 62.5558 101.98 64.267 101.98 66.9923C101.98 69.7177 100.141 71.4289 97.733 71.4289Z" fill="#4565AC"/>
<path d="M86.1978 59.83C85.3105 59.83 84.5499 60.5905 84.5499 61.4779V67.4987C84.5499 70.0973 83.9161 71.3016 81.8246 71.3016C81.6978 71.3016 81.3809 71.3016 81.2541 71.3016C79.1626 71.3016 78.5288 70.0973 78.5288 67.4987V61.4779C78.5288 60.5905 77.7682 59.83 76.8809 59.83C75.9936 59.83 75.233 60.5905 75.233 61.4779V67.9424C75.233 71.3015 76.7541 73.2663 79.1626 73.9635C81.5077 74.4706 83.0288 74.1537 83.5992 74.0269C86.2612 73.4565 87.9091 71.4917 87.9091 67.9424V61.5412C87.8457 60.5905 87.0851 59.83 86.1978 59.83Z" fill="#4565AC"/>
<path d="M68.895 21.9926C68.071 27.063 67.9443 35.3024 71.4302 41.2602C73.9654 46.394 79.0358 49.8799 80.3668 50.7038L80.4302 50.7672C80.3668 50.7672 80.3668 50.7672 80.3034 50.7672C78.7823 50.7672 72.6344 51.8447 64.902 48.2954C56.1557 44.6827 45.1909 34.732 44.2402 22.056C43.6064 11.3447 50.6416 6.78131 56.6628 6.59117C58.1839 6.52779 59.6416 6.71793 60.8459 7.22497C67.6274 9.3799 69.402 16.4151 68.895 21.9926Z" fill="#F49C0E"/>
<path d="M88.8598 18.3797C85.3105 20.0276 79.9865 23.5769 77.7682 28.3304C75.5499 32.1966 75.5499 36.9501 75.6767 38.091C75.0429 37.2037 71.6837 33.7811 70.5429 27.253C69.0851 20.1544 70.6063 8.93605 78.2119 2.78819C86.3246 -3.54983 93.6133 1.90087 94.8175 6.8445C96.2753 12.1051 92.5992 16.2882 88.8598 18.3797Z" fill="#4565AC"/>
<path d="M97.733 85.1831C97.1626 84.993 96.7189 84.8662 96.7189 84.5493C96.7189 84.3591 96.9091 84.169 97.226 84.169C97.5429 84.169 97.9232 84.2958 98.3034 84.4859C98.3668 84.5493 98.4936 84.5493 98.557 84.5493C98.8739 84.5493 99.1274 84.2958 99.1274 83.9789C99.1274 83.7254 99.0006 83.5352 98.8105 83.4085C98.3034 83.1549 97.7964 83.0282 97.2894 83.0282C96.2753 83.0282 95.4513 83.5986 95.4513 84.6761C95.4513 85.6901 96.2753 86.007 96.9725 86.2606C97.5429 86.4507 97.9865 86.5141 97.9865 86.831C97.9865 87.0845 97.7964 87.2113 97.4161 87.2113C97.0358 87.2113 96.5288 87.0845 96.0851 86.7676C96.0217 86.7042 95.895 86.7042 95.8316 86.7042C95.5147 86.7042 95.2612 86.9577 95.2612 87.2746C95.2612 87.5282 95.388 87.6549 95.5147 87.7817C96.1485 88.162 96.7823 88.3521 97.4161 88.3521C98.4936 88.3521 99.3175 87.8451 99.3175 86.7042C99.2541 85.8169 98.4302 85.4366 97.733 85.1831Z" fill="#4565AC"/>
<path d="M53.5578 84.1056C53.9381 84.1056 54.3184 84.2324 54.5719 84.4859C54.762 84.6761 55.0155 84.6761 55.2057 84.5493C55.5226 84.3591 55.586 83.9155 55.3324 83.662C54.8888 83.2183 54.255 83.0282 53.4944 83.0282C51.8465 83.0282 50.6423 84.169 50.6423 85.6901C50.6423 87.2746 51.8465 88.3521 53.4944 88.3521C54.255 88.3521 54.8888 88.0986 55.3324 87.7183C55.586 87.4648 55.5226 87.0211 55.2057 86.831C55.0155 86.7042 54.6986 86.7676 54.5719 86.8944C54.255 87.1479 53.9381 87.2746 53.5578 87.2746C52.6705 87.2746 51.9733 86.6408 51.9733 85.6268C51.9733 84.7394 52.6071 84.1056 53.5578 84.1056Z" fill="#4565AC"/>
<path d="M57.2329 83.1543H57.1695C56.8526 83.1543 56.5991 83.4078 56.5991 83.7247V87.8444C56.5991 88.1613 56.8526 88.4149 57.1695 88.4149H57.2329C57.5498 88.4149 57.8033 88.1613 57.8033 87.8444V83.7247C57.8033 83.4078 57.5498 83.1543 57.2329 83.1543Z" fill="#4565AC"/>
<path d="M57.2331 81.3163C56.8529 81.3163 56.5359 81.5698 56.5359 81.9501C56.5359 82.3303 56.7895 82.5839 57.2331 82.5839C57.6134 82.5839 57.9303 82.3303 57.9303 81.9501C57.8669 81.5698 57.6134 81.3163 57.2331 81.3163Z" fill="#4565AC"/>
<path d="M93.6139 81.3163C93.2336 81.3163 92.9167 81.5698 92.9167 81.9501C92.9167 82.3303 93.1703 82.5839 93.6139 82.5839C93.9942 82.5839 94.3111 82.3303 94.3111 81.9501C94.2477 81.5698 93.9942 81.3163 93.6139 81.3163Z" fill="#4565AC"/>
<path d="M93.6133 83.1543H93.5499C93.233 83.1543 92.9795 83.4078 92.9795 83.7247V87.8444C92.9795 88.1613 93.233 88.4149 93.5499 88.4149H93.6133C93.9302 88.4149 94.1837 88.1613 94.1837 87.8444V83.7247C94.1837 83.4078 93.9302 83.1543 93.6133 83.1543Z" fill="#4565AC"/>
<path d="M47.0928 82.7106H47.4097C47.473 82.7106 47.5364 82.7106 47.5998 82.6473L48.6773 81.8233C48.9308 81.6332 48.804 81.2529 48.4871 81.2529H47.9167C47.8533 81.2529 47.7266 81.3163 47.7266 81.3163L46.9026 82.1402C46.7125 82.3937 46.8392 82.7106 47.0928 82.7106Z" fill="#4565AC"/>
<path d="M34.7336 83.0916C32.3252 83.3451 32.3252 85.6268 32.3252 85.6268V87.7817C32.3252 88.0986 32.5787 88.3521 32.8956 88.3521H33.0224C33.3393 88.3521 33.5928 88.0986 33.5928 87.7817V85.8169C33.5928 84.8662 34.0998 84.2958 34.8604 84.2324C35.1773 84.2324 35.3674 83.9789 35.3674 83.662C35.3674 83.3451 35.1139 83.0916 34.7336 83.0916Z" fill="#4565AC"/>
<path d="M106.543 83.0916C104.134 83.3451 104.134 85.6268 104.134 85.6268V87.7817C104.134 88.0986 104.388 88.3521 104.705 88.3521H104.832C105.149 88.3521 105.402 88.0986 105.402 87.7817V85.8169C105.402 84.8662 105.909 84.2958 106.67 84.2324C106.987 84.2324 107.177 83.9789 107.177 83.662C107.177 83.3451 106.923 83.0916 106.543 83.0916Z" fill="#4565AC"/>
<path d="M24.6559 81.5698C22.2475 81.8233 22.2475 84.105 22.2475 84.105V84.9289V84.9923V87.781C22.2475 88.0979 22.501 88.3515 22.8179 88.3515H22.9447C23.2616 88.3515 23.5151 88.0979 23.5151 87.781V85.5627H24.1489C24.4658 85.5627 24.7193 85.3092 24.7193 84.9923V84.9289C24.7193 84.612 24.4658 84.3585 24.1489 84.3585H23.5151V84.2951C23.5151 83.3444 24.0221 82.774 24.7827 82.7106C25.0996 82.7106 25.2898 82.4571 25.2898 82.1402C25.2898 81.7599 24.9728 81.5064 24.6559 81.5698Z" fill="#4565AC"/>
<path d="M116.684 87.274C116.684 87.274 116.621 87.274 116.684 87.274C115.86 87.1473 115.417 86.6402 115.417 85.6895V82.1402C115.417 81.8233 115.163 81.5698 114.846 81.5698H114.72C114.403 81.5698 114.149 81.8233 114.149 82.1402V85.8796C114.149 85.8796 114.149 88.1613 116.558 88.4149C116.874 88.4782 117.191 88.1613 117.191 87.8444C117.191 87.5275 116.938 87.274 116.684 87.274Z" fill="#4565AC"/>
<path d="M91.2689 83.1549H91.1421C90.8886 83.1549 90.6984 83.2817 90.6351 83.5352C90.1914 83.2817 89.621 83.0916 89.0506 83.0916C87.466 83.0916 86.2618 84.2324 86.2618 85.7535C86.2618 87.338 87.466 88.4155 89.0506 88.4155C89.5576 88.4155 90.0646 88.2887 90.4449 88.0986C90.2548 88.5423 89.8745 88.7958 89.3675 88.8592C89.0506 88.8592 88.8604 89.1127 88.8604 89.4296C88.8604 89.7465 89.1773 90 89.4942 90C91.9027 89.7465 91.9027 87.4648 91.9027 87.4648V83.7254C91.8393 83.4085 91.5858 83.1549 91.2689 83.1549ZM88.9872 87.4014C88.0998 87.4014 87.466 86.7676 87.466 85.7535C87.466 84.7394 88.1632 84.1056 88.9872 84.1056C89.8745 84.1056 90.5717 84.7394 90.5717 85.7535C90.5717 86.7676 89.8745 87.4014 88.9872 87.4014Z" fill="#4565AC"/>
<path d="M28.459 83.0916C26.8745 83.0916 25.6703 84.2324 25.6703 85.7535C25.6703 87.338 26.8745 88.4155 28.459 88.4155C29.0928 88.4155 29.5999 88.2887 30.0435 87.9718C30.1069 88.162 30.3604 88.3521 30.5506 88.3521H30.6139C30.9309 88.3521 31.1844 88.0986 31.1844 87.7817V86.007V85.9437C31.1844 85.8803 31.1844 85.8169 31.1844 85.7535C31.2478 84.169 30.1069 83.0916 28.459 83.0916ZM28.459 87.4014C27.5717 87.4014 26.9379 86.7676 26.9379 85.7535C26.9379 84.7394 27.6351 84.1056 28.459 84.1056C29.3463 84.1056 30.0435 84.7394 30.0435 85.7535C30.0435 86.7676 29.3463 87.4014 28.459 87.4014Z" fill="#4565AC"/>
<path d="M46.9655 83.0916C45.381 83.0916 44.1768 84.2324 44.1768 85.7535C44.1768 87.338 45.381 88.4155 46.9655 88.4155C47.5993 88.4155 48.1064 88.2887 48.5501 87.9718C48.6134 88.162 48.867 88.3521 49.0571 88.3521H49.1205C49.4374 88.3521 49.6909 88.0986 49.6909 87.7817V86.007V85.9437C49.6909 85.8803 49.6909 85.8169 49.6909 85.7535C49.7543 84.169 48.6134 83.0916 46.9655 83.0916ZM46.9655 87.4014C46.0782 87.4014 45.4444 86.7676 45.4444 85.7535C45.4444 84.7394 46.1416 84.1056 46.9655 84.1056C47.8529 84.1056 48.5501 84.7394 48.5501 85.7535C48.4867 86.7676 47.8529 87.4014 46.9655 87.4014Z" fill="#4565AC"/>
<path d="M61.6704 83.0916C60.0859 83.0916 58.8817 84.2324 58.8817 85.7535C58.8817 87.338 60.0859 88.4155 61.6704 88.4155C62.3042 88.4155 62.8113 88.2887 63.255 87.9718C63.3183 88.162 63.5717 88.3521 63.7618 88.3521H63.8252C64.1421 88.3521 64.3956 88.0986 64.3956 87.7817V86.007V85.9437C64.3956 85.8803 64.3956 85.8169 64.3956 85.7535C64.459 84.169 63.3183 83.0916 61.6704 83.0916ZM61.6704 87.4014C60.7831 87.4014 60.1493 86.7676 60.1493 85.7535C60.1493 84.7394 60.8465 84.1056 61.6704 84.1056C62.5578 84.1056 63.255 84.7394 63.255 85.7535C63.255 86.7676 62.5578 87.4014 61.6704 87.4014Z" fill="#4565AC"/>
<path d="M110.409 83.0916C108.825 83.0916 107.62 84.2324 107.62 85.7535C107.62 87.338 108.825 88.4155 110.409 88.4155C111.043 88.4155 111.55 88.2887 111.994 87.9718C112.057 88.162 112.31 88.3521 112.501 88.3521H112.564C112.881 88.3521 113.134 88.0986 113.134 87.7817V86.007V85.9437C113.134 85.8803 113.134 85.8169 113.134 85.7535C113.198 84.169 111.994 83.0916 110.409 83.0916ZM110.409 87.4014C109.522 87.4014 108.888 86.7676 108.888 85.7535C108.888 84.7394 109.585 84.1056 110.409 84.1056C111.296 84.1056 111.994 84.7394 111.994 85.7535C111.93 86.7676 111.296 87.4014 110.409 87.4014Z" fill="#4565AC"/>
<path d="M82.3956 83.0916C80.8111 83.0916 79.6069 84.2324 79.6069 85.7535C79.6069 87.338 80.8111 88.4155 82.3956 88.4155C83.0294 88.4155 83.5365 88.2887 83.9801 87.9718C84.0435 88.162 84.297 88.3521 84.4872 88.3521H84.5505C84.8674 88.3521 85.121 88.0986 85.121 87.7817V86.007V85.9437C85.121 85.8803 85.121 85.8169 85.121 85.7535C85.1844 84.169 83.9801 83.0916 82.3956 83.0916ZM82.3956 87.4014C81.5083 87.4014 80.8745 86.7676 80.8745 85.7535C80.8745 84.7394 81.5717 84.1056 82.3956 84.1056C83.2829 84.1056 83.9801 84.7394 83.9801 85.7535C83.9167 86.7676 83.2829 87.4014 82.3956 87.4014Z" fill="#4565AC"/>
<path d="M41.7681 83.2177C41.3878 83.0909 40.754 83.1543 40.5639 83.1543C40.1836 83.2177 39.8667 83.4078 39.6132 83.6613C39.3596 83.4078 39.1061 83.2811 38.7892 83.1543C38.4089 83.0275 37.7751 83.0909 37.585 83.0909C36.6343 83.2811 36.0005 84.0416 36.0005 85.3092V87.7177C36.0005 88.0346 36.254 88.3515 36.6343 88.3515C36.9512 88.3515 37.2681 88.098 37.2681 87.7177V85.4994C37.2681 84.9923 37.3949 84.1684 38.1554 84.1684C38.8526 84.1684 39.0427 85.0557 39.0427 85.4994V87.7177C39.0427 88.0346 39.2963 88.3515 39.6765 88.3515C39.9934 88.3515 40.3103 88.098 40.3103 87.7177V85.4994C40.3103 84.9923 40.4371 84.1684 41.1977 84.1684C41.8949 84.1684 42.085 85.0557 42.085 85.4994V87.7177C42.085 88.0346 42.3385 88.3515 42.7188 88.3515C43.0991 88.3515 43.3526 88.098 43.3526 87.7177V85.3092C43.2258 84.2318 42.6554 83.4712 41.7681 83.2177Z" fill="#4565AC"/>
<path d="M77.0717 83.2177C76.6914 83.0909 76.0576 83.1543 75.8675 83.1543C75.4872 83.2177 75.1703 83.4078 74.9168 83.6613C74.6632 83.4078 74.4097 83.2811 74.0928 83.1543C73.7125 83.0275 73.0787 83.0909 72.8886 83.0909C71.9379 83.2811 71.3041 84.0416 71.3041 85.3092V87.7177C71.3041 88.0346 71.5576 88.3515 71.9379 88.3515C72.3182 88.3515 72.5717 88.098 72.5717 87.7177V85.4994C72.5717 84.9923 72.6984 84.1684 73.459 84.1684C74.1562 84.1684 74.3463 85.0557 74.3463 85.4994V87.7177C74.3463 88.0346 74.5999 88.3515 74.9801 88.3515C75.297 88.3515 75.6139 88.098 75.6139 87.7177V85.4994C75.6139 84.9923 75.7407 84.1684 76.5013 84.1684C77.1984 84.1684 77.3886 85.0557 77.3886 85.4994V87.7177C77.3886 88.0346 77.6421 88.3515 78.0224 88.3515C78.3393 88.3515 78.6562 88.098 78.6562 87.7177V85.3092C78.5294 84.2318 77.959 83.4712 77.0717 83.2177Z" fill="#4565AC"/>
<path d="M102.931 87.3374C102.804 87.3374 102.804 87.4008 102.741 87.4008C102.234 87.4008 101.98 87.0839 101.98 86.5768V83.9149H102.741C103.058 83.9149 103.248 83.6613 103.248 83.4078C103.248 83.0909 102.994 82.9008 102.741 82.9008H101.98V82.267C101.98 81.8867 101.727 81.6332 101.346 81.6332H101.283C100.903 81.6332 100.649 81.8867 100.649 82.267V82.9008H100.269C99.952 82.9008 99.7618 83.1543 99.7618 83.4078C99.7618 83.7247 100.015 83.9149 100.269 83.9149H100.649V86.5768C100.649 87.7811 101.346 88.4782 102.551 88.4782C102.804 88.4782 102.994 88.4149 103.248 88.3515C103.501 88.2247 103.628 87.9712 103.565 87.6543C103.438 87.4008 103.184 87.274 102.931 87.3374Z" fill="#4565AC"/>
</g>
<defs>
<clipPath id="clip0_1_2">
<rect width="139.437" height="90" fill="white"/>
</clipPath>
</defs>
</svg>
